G04 Layer: TopSilkscreenLayer*
G04 EasyEDA v6.5.43, 2024-07-05 18:18:57*
G04 3cc891f10281484faf5b1308816f21d3,cc13f507e4144743b0c78f9bb9a039b6,10*
G04 Gerber Generator version 0.2*
G04 Scale: 100 percent, Rotated: No, Reflected: No *
G04 Dimensions in millimeters *
G04 leading zeros omitted , absolute positions ,4 integer and 5 decimal *
%FSLAX45Y45*%
%MOMM*%

%ADD10C,0.1524*%
%ADD11C,0.2540*%

%LPD*%
D10*
X3579875Y5474207D02*
G01*
X3579875Y5583173D01*
X3579875Y5474207D02*
G01*
X3533140Y5474207D01*
X3517645Y5479287D01*
X3512311Y5484621D01*
X3507231Y5495036D01*
X3507231Y5510529D01*
X3512311Y5520944D01*
X3517645Y5526023D01*
X3533140Y5531357D01*
X3579875Y5531357D01*
X3472941Y5495036D02*
G01*
X3462527Y5489702D01*
X3446779Y5474207D01*
X3446779Y5583173D01*
X3532124Y5193792D02*
G01*
X3532124Y5084826D01*
X3532124Y5193792D02*
G01*
X3578859Y5193792D01*
X3594354Y5188712D01*
X3599688Y5183378D01*
X3604768Y5172963D01*
X3604768Y5157470D01*
X3599688Y5147055D01*
X3594354Y5141976D01*
X3578859Y5136642D01*
X3532124Y5136642D01*
X3644391Y5167884D02*
G01*
X3644391Y5172963D01*
X3649472Y5183378D01*
X3654806Y5188712D01*
X3665220Y5193792D01*
X3685793Y5193792D01*
X3696208Y5188712D01*
X3701541Y5183378D01*
X3706622Y5172963D01*
X3706622Y5162550D01*
X3701541Y5152136D01*
X3691127Y5136642D01*
X3639058Y5084826D01*
X3711956Y5084826D01*
X4548124Y5193792D02*
G01*
X4548124Y5084826D01*
X4548124Y5193792D02*
G01*
X4594859Y5193792D01*
X4610354Y5188712D01*
X4615688Y5183378D01*
X4620768Y5172963D01*
X4620768Y5157470D01*
X4615688Y5147055D01*
X4610354Y5141976D01*
X4594859Y5136642D01*
X4548124Y5136642D01*
X4665472Y5193792D02*
G01*
X4722622Y5193792D01*
X4691634Y5152136D01*
X4707127Y5152136D01*
X4717541Y5147055D01*
X4722622Y5141976D01*
X4727956Y5126228D01*
X4727956Y5115813D01*
X4722622Y5100320D01*
X4712208Y5089905D01*
X4696713Y5084826D01*
X4681220Y5084826D01*
X4665472Y5089905D01*
X4660391Y5094986D01*
X4655058Y5105400D01*
X4595875Y5474207D02*
G01*
X4595875Y5583173D01*
X4595875Y5474207D02*
G01*
X4549140Y5474207D01*
X4533645Y5479287D01*
X4528311Y5484621D01*
X4523231Y5495036D01*
X4523231Y5510529D01*
X4528311Y5520944D01*
X4533645Y5526023D01*
X4549140Y5531357D01*
X4595875Y5531357D01*
X4436872Y5474207D02*
G01*
X4488941Y5546852D01*
X4410963Y5546852D01*
X4436872Y5474207D02*
G01*
X4436872Y5583173D01*
X1801876Y5474207D02*
G01*
X1801876Y5583173D01*
X1801876Y5474207D02*
G01*
X1755139Y5474207D01*
X1739645Y5479287D01*
X1734312Y5484621D01*
X1729231Y5495036D01*
X1729231Y5510529D01*
X1734312Y5520944D01*
X1739645Y5526023D01*
X1755139Y5531357D01*
X1801876Y5531357D01*
X1632457Y5474207D02*
G01*
X1684528Y5474207D01*
X1689607Y5520944D01*
X1684528Y5515863D01*
X1668779Y5510529D01*
X1653286Y5510529D01*
X1637792Y5515863D01*
X1627378Y5526023D01*
X1622044Y5541771D01*
X1622044Y5552186D01*
X1627378Y5567679D01*
X1637792Y5578094D01*
X1653286Y5583173D01*
X1668779Y5583173D01*
X1684528Y5578094D01*
X1689607Y5573013D01*
X1694942Y5562600D01*
X1749188Y5176111D02*
G01*
X1749188Y5067145D01*
X1749188Y5176111D02*
G01*
X1795924Y5176111D01*
X1811418Y5171031D01*
X1816752Y5165697D01*
X1821832Y5155283D01*
X1821832Y5139789D01*
X1816752Y5129375D01*
X1811418Y5124295D01*
X1795924Y5118961D01*
X1749188Y5118961D01*
X1929020Y5176111D02*
G01*
X1876950Y5067145D01*
X1856122Y5176111D02*
G01*
X1929020Y5176111D01*
D11*
X4055999Y6317792D02*
G01*
X3056000Y6317792D01*
X4056532Y5703366D02*
G01*
X4096004Y5686000D01*
X4096004Y5786000D01*
X4056532Y5766307D01*
X4055999Y5636000D02*
G01*
X3056000Y5636000D01*
X4055999Y5636000D02*
G01*
X4055999Y6395999D01*
X3056000Y5636000D02*
G01*
X3056000Y6395999D01*
X4055999Y6395999D02*
G01*
X3056000Y6395999D01*
X4055999Y5855919D02*
G01*
X3056000Y5855919D01*
X3056000Y4350207D02*
G01*
X4055999Y4350207D01*
X3055467Y4964633D02*
G01*
X3015995Y4981999D01*
X3015995Y4881999D01*
X3055467Y4901692D01*
X3056000Y5031999D02*
G01*
X4055999Y5031999D01*
X3056000Y5031999D02*
G01*
X3056000Y4272000D01*
X4055999Y5031999D02*
G01*
X4055999Y4272000D01*
X3056000Y4272000D02*
G01*
X4055999Y4272000D01*
X3056000Y4812080D02*
G01*
X4055999Y4812080D01*
X4072000Y4350207D02*
G01*
X5071999Y4350207D01*
X4071467Y4964633D02*
G01*
X4031995Y4981999D01*
X4031995Y4881999D01*
X4071467Y4901692D01*
X4072000Y5031999D02*
G01*
X5071999Y5031999D01*
X4072000Y5031999D02*
G01*
X4072000Y4272000D01*
X5071999Y5031999D02*
G01*
X5071999Y4272000D01*
X4072000Y4272000D02*
G01*
X5071999Y4272000D01*
X4072000Y4812080D02*
G01*
X5071999Y4812080D01*
X5071999Y6317792D02*
G01*
X4072000Y6317792D01*
X5072532Y5703366D02*
G01*
X5112004Y5686000D01*
X5112004Y5786000D01*
X5072532Y5766307D01*
X5071999Y5636000D02*
G01*
X4072000Y5636000D01*
X5071999Y5636000D02*
G01*
X5071999Y6395999D01*
X4072000Y5636000D02*
G01*
X4072000Y6395999D01*
X5071999Y6395999D02*
G01*
X4072000Y6395999D01*
X5071999Y5855919D02*
G01*
X4072000Y5855919D01*
X2277999Y6317792D02*
G01*
X1278001Y6317792D01*
X2278532Y5703366D02*
G01*
X2318004Y5686000D01*
X2318004Y5786000D01*
X2278532Y5766307D01*
X2277999Y5636000D02*
G01*
X1278001Y5636000D01*
X2277999Y5636000D02*
G01*
X2277999Y6395999D01*
X1278001Y5636000D02*
G01*
X1278001Y6395999D01*
X2277999Y6395999D02*
G01*
X1278001Y6395999D01*
X2277999Y5855919D02*
G01*
X1278001Y5855919D01*
X1347012Y4273001D02*
G01*
X1347012Y4358845D01*
X1310944Y4394918D01*
X1227886Y4394918D01*
X1191569Y4273001D02*
G01*
X1191569Y4358850D01*
X1227637Y4394918D01*
X1310695Y4394918D01*
X1855010Y4272996D02*
G01*
X1855010Y4358840D01*
X1818944Y4394913D01*
X1735886Y4394913D01*
X1699572Y4272996D02*
G01*
X1699572Y4358845D01*
X1735635Y4394913D01*
X1818693Y4394913D01*
X2207557Y4273001D02*
G01*
X2207557Y4358850D01*
X2243625Y4394918D01*
X2326683Y4394918D01*
X2363000Y4273001D02*
G01*
X2363000Y4358845D01*
X2326932Y4394918D01*
X2243874Y4394918D01*
X1015997Y4350202D02*
G01*
X2540000Y4350202D01*
X1016000Y4964628D02*
G01*
X976002Y4981991D01*
X976002Y4881996D01*
X1016000Y4901684D01*
X1015997Y5031994D02*
G01*
X2540000Y5031994D01*
X1016000Y5031994D02*
G01*
X1016000Y4271995D01*
X2540000Y5031994D02*
G01*
X2540000Y4271995D01*
X1015997Y4271995D02*
G01*
X2540000Y4271995D01*
X1015997Y4812075D02*
G01*
X2540000Y4812075D01*
M02*
