G04 Layer: BottomLayer*
G04 EasyEDA v6.5.43, 2024-07-05 18:18:57*
G04 3cc891f10281484faf5b1308816f21d3,cc13f507e4144743b0c78f9bb9a039b6,10*
G04 Gerber Generator version 0.2*
G04 Scale: 100 percent, Rotated: No, Reflected: No *
G04 Dimensions in millimeters *
G04 leading zeros omitted , absolute positions ,4 integer and 5 decimal *
%FSLAX45Y45*%
%MOMM*%

%ADD10C,1.2000*%
%ADD11C,2.0000*%

%LPD*%
D10*
X1778000Y4572000D02*
G01*
X2222500Y4127500D01*
X3877056Y4127500D01*
X4321556Y4572000D01*
X4321558Y6096002D02*
G01*
X4321558Y4572002D01*
X3305558Y4572002D02*
G01*
X3305558Y6096002D01*
X2028446Y6096002D02*
G01*
X3305558Y6096002D01*
X3806446Y6096002D02*
G01*
X3806446Y4572002D01*
X4822446Y6096002D02*
G01*
X4822446Y4572002D01*
X2286002Y4572002D02*
G01*
X2286002Y5337558D01*
X1527558Y6096002D01*
X3806443Y6096000D02*
G01*
X3171443Y6731000D01*
X2162556Y6731000D01*
X1527555Y6096000D01*
X1270000Y4572000D02*
G01*
X1270000Y4356100D01*
X1803400Y3822700D01*
X4445000Y3822700D01*
X4822443Y4200144D01*
X4822443Y4572000D01*
D11*
G01*
X3806443Y6096000D03*
G01*
X3305556Y6096000D03*
G01*
X3305556Y4572000D03*
G01*
X3806443Y4572000D03*
G01*
X4321556Y4572000D03*
G01*
X4822443Y4572000D03*
G01*
X4822443Y6096000D03*
G01*
X4321556Y6096000D03*
G01*
X2028443Y6096000D03*
G01*
X1527555Y6096000D03*
G01*
X2286000Y4572000D03*
G01*
X1270000Y4572000D03*
G01*
X1778000Y4572000D03*
M02*
